<svg width="22" height="19" viewBox="0 0 22 19" fill="none" xmlns="http://www.w3.org/2000/svg">
<path d="M10.0591 1.00003C10.0591 0.593189 9.81262 0.226902 9.43574 0.0736706C9.05885 -0.0795609 8.6267 0.0108127 8.34281 0.302231L0.283709 8.57488C-0.087348 8.95577 -0.0954247 9.56044 0.265326 9.9511L8.32443 18.6785C8.60374 18.9809 9.0399 19.0813 9.42333 18.9313C9.80676 18.7814 10.0591 18.4117 10.0591 18V13.5313C11.393 13.408 12.7966 13.4987 14.2746 13.8124C15.8177 14.1398 17.8035 15.5942 20.2264 18.5518C20.506 18.8931 20.9762 19.0108 21.3836 18.8416C21.791 18.6723 22.0394 18.2561 21.9949 17.8172C21.6329 14.2472 20.2608 11.2239 17.8665 8.79764C15.6921 6.59408 13.0758 5.36503 10.0591 5.12626V1.00003Z" fill="#313F6A"/>
</svg>
