<svg width="24" height="25" viewBox="0 0 24 25" fill="none" xmlns="http://www.w3.org/2000/svg">
<path fill-rule="evenodd" clip-rule="evenodd" d="M6 7.59277V10.5928H4C2.89543 10.5928 2 11.4882 2 12.5928V21.5928C2 22.6973 2.89543 23.5928 4 23.5928H20C21.1046 23.5928 22 22.6973 22 21.5928V12.5928C22 11.4882 21.1046 10.5928 20 10.5928H18V7.59277C18 4.27906 15.3137 1.59277 12 1.59277C8.68632 1.59277 6 4.27906 6 7.59277ZM12 3.59277C9.79088 3.59277 8 5.38364 8 7.59277V10.5928H16V7.59277C16 5.38364 14.2091 3.59277 12 3.59277ZM13 15.5928C13 15.0405 12.5523 14.5928 12 14.5928C11.4477 14.5928 11 15.0405 11 15.5928V18.5928C11 19.1451 11.4477 19.5928 12 19.5928C12.5523 19.5928 13 19.1451 13 18.5928V15.5928Z" fill="#313F6A"/>
</svg>
