<svg width="22" height="17" viewBox="0 0 22 17" fill="none" xmlns="http://www.w3.org/2000/svg">
<path fill-rule="evenodd" clip-rule="evenodd" d="M0.473076 0.149926C0.62608 0.0548849 0.80663 0 1 0H21C21.1905 0 21.3686 0.0532715 21.5201 0.145731C21.5015 0.134433 21.4826 0.123776 21.4635 0.11377C21.5814 0.175579 21.6855 0.260242 21.7698 0.361876C21.7556 0.344701 21.7409 0.328114 21.7258 0.312123C21.8441 0.436864 21.9305 0.592067 21.9722 0.764738C21.958 0.706162 21.9384 0.648433 21.9133 0.592303C21.969 0.716839 22 0.854848 22 1.00009V1.01476L22 1.01124V16C22 16.5523 21.5523 17 21 17H1C0.447715 17 0 16.5523 0 16V1C0 0.641085 0.189086 0.326333 0.473076 0.149926ZM0.473076 0.149926C0.48397 0.143179 0.494975 0.136654 0.506084 0.130353C0.418465 0.180213 0.339116 0.242932 0.270604 0.315941C0.331619 0.250735 0.399835 0.195293 0.473076 0.149926ZM1.99995 2.00009H3.99993L11 7.25015L18.0001 2.00009H20V3.00019L11.6 9.30015C11.2445 9.56681 10.7556 9.56681 10.4 9.30015L1.99995 3.0001V2.00009Z" fill="#313F6A"/>
</svg>
