<svg width="49" height="49" viewBox="0 0 49 49" fill="none" xmlns="http://www.w3.org/2000/svg">
<path fill-rule="evenodd" clip-rule="evenodd" d="M0.5 2.68182C0.5 1.47683 1.47683 0.5 2.68182 0.5H11.4091C12.6141 0.5 13.5909 1.47683 13.5909 2.68182V16.6061L27.8879 9.45761C28.5642 9.11944 29.3675 9.15558 30.0107 9.55313C30.6539 9.95067 31.0455 10.6529 31.0455 11.4091V16.6061L45.3424 9.45761C46.0188 9.11944 46.822 9.15558 47.4652 9.55313C48.1085 9.95067 48.5 10.6529 48.5 11.4091V46.3182C48.5 47.5232 47.5232 48.5 46.3182 48.5H2.68182C1.47683 48.5 0.5 47.5232 0.5 46.3182V2.68182ZM4.86364 4.86364V44.1364H44.1364V14.9393L29.8394 22.0878C29.163 22.426 28.3598 22.3899 27.7166 21.9923C27.0734 21.5948 26.6818 20.8925 26.6818 20.1364V14.9393L12.3848 22.0878C11.7085 22.426 10.9053 22.3899 10.262 21.9923C9.61881 21.5948 9.22727 20.8925 9.22727 20.1364V4.86364H4.86364ZM9.22727 28.8636C9.22727 27.6587 10.2041 26.6818 11.4091 26.6818H20.1364C21.3414 26.6818 22.3182 27.6587 22.3182 28.8636V37.5909C22.3182 38.7959 21.3414 39.7727 20.1364 39.7727H11.4091C10.2041 39.7727 9.22727 38.7959 9.22727 37.5909V28.8636ZM13.5909 31.0455V35.4091H17.9545V31.0455H13.5909ZM26.6818 28.8636C26.6818 27.6587 27.6587 26.6818 28.8636 26.6818H37.5909C38.7959 26.6818 39.7727 27.6587 39.7727 28.8636V37.5909C39.7727 38.7959 38.7959 39.7727 37.5909 39.7727H28.8636C27.6587 39.7727 26.6818 38.7959 26.6818 37.5909V28.8636ZM31.0455 31.0455V35.4091H35.4091V31.0455H31.0455Z" fill="#1481F8"/>
</svg>
