<svg width="49" height="51" viewBox="0 0 49 51" fill="none" xmlns="http://www.w3.org/2000/svg">
<path fill-rule="evenodd" clip-rule="evenodd" d="M31.3319 29.6562C29.1949 26.4676 18.2157 21.4528 13.4365 21.4528C9.10455 21.4528 4.55138 24.3644 1.1315 28.1914C0.2895 29.1336 0.2895 30.6613 1.1315 31.6035C1.9735 32.5458 3.33865 32.5458 4.18065 31.6035C6.86966 28.5944 10.4916 26.2783 13.4365 26.2783L13.7732 26.2903C15.1595 26.3838 17.2754 27.0144 19.4555 27.8634L20.6471 28.3462C21.242 28.5966 21.8327 28.8589 22.4057 29.1266L23.524 29.6675C25.3352 30.5747 26.8495 31.4948 27.567 32.1883L27.7118 32.3416L27.6959 32.3866C27.5252 32.7492 27.164 33.2456 26.668 33.7742C26.4367 34.0207 26.2032 34.2489 25.9839 34.4504L20.5865 32.434L20.3434 32.3604C19.2867 32.1132 18.2089 32.7861 17.8593 33.96C17.4827 35.2241 18.0932 36.5905 19.2229 37.0119L25.697 39.427C25.7834 39.4588 25.8715 39.4845 25.9621 39.5043L25.982 39.5085C26.058 39.5242 26.1348 39.5353 26.2128 39.5418C26.2487 39.5448 26.2845 39.5468 26.3196 39.5479C26.3713 39.5494 26.4231 39.5488 26.4751 39.5457C26.5078 39.544 26.5405 39.5414 26.5731 39.538L26.5657 39.5393C26.6271 39.5331 26.6884 39.5241 26.7495 39.512L26.7958 39.5016L33.2207 38.1005L35.125 37.6976L39.7743 36.751L42.2552 36.2838L43.6409 36.05L43.5705 36.1525C43.456 36.3064 43.3244 36.4688 43.175 36.636C39.1064 41.1889 32.9397 45.5803 28.529 45.5803C26.0712 45.5803 24.0331 45.0797 20.856 43.8946L18.8828 43.1661L17.7255 42.7572L17.0752 42.5423L16.5017 42.3687L15.9876 42.2323L15.5155 42.1289L15.0683 42.0544L14.6286 42.0046L14.179 41.9754L13.7023 41.9627L2.65608 41.9612L2.40463 41.9774C1.33233 42.1168 0.5 43.1366 0.5 44.374C0.5 45.7065 1.46531 46.7867 2.65608 46.7867L13.6169 46.788L13.9609 46.7997L14.2954 46.8271L14.6362 46.8744L14.9993 46.9458L15.6202 47.1073L16.108 47.2573L16.9903 47.5563L17.7019 47.811L20.299 48.7676C23.4503 49.8963 25.7393 50.4058 28.529 50.4058C34.4366 50.4058 41.3989 45.4479 46.2241 40.0482C49.4763 36.4088 49.4763 31.1038 44.6996 31.1038C44.5407 31.1038 44.3367 31.1163 44.0883 31.141L43.5324 31.2065L42.4785 31.3643L40.6682 31.6826L39.5918 31.8867L35.9202 32.6238L31.9322 33.4689C32.2626 32.1505 32.1025 30.806 31.3319 29.6562ZM45.7776 5.76993C45.7776 4.4374 44.8123 3.35718 43.6215 3.35718H26.3729L26.1215 3.37341C25.0492 3.51278 24.2168 4.53258 24.2168 5.76993C24.2168 7.10246 25.1821 8.18268 26.3729 8.18268H43.6215L43.873 8.16645C44.9453 8.02708 45.7776 7.00728 45.7776 5.76993Z" fill="#CCBC30"/>
<path fill-rule="evenodd" clip-rule="evenodd" d="M40.3874 10.5954C43.3643 10.5954 45.7776 13.296 45.7776 16.6273C45.7776 19.9586 43.3643 22.6592 40.3874 22.6592H29.607C26.6302 22.6592 24.2168 19.9586 24.2168 16.6273C24.2168 13.296 26.6302 10.5954 29.607 10.5954H40.3874Z" fill="#CCBC30"/>
</svg>
