<svg width="50" height="46" viewBox="0 0 50 46" fill="none" xmlns="http://www.w3.org/2000/svg">
<path d="M12.9439 20.1398C12.6557 20.4762 12.2806 20.7268 11.8453 20.8426C7.89702 21.8934 4.96227 25.8691 4.96227 30.6058C4.96227 36.148 8.97716 40.6409 13.9298 40.6409C14.7831 40.6409 15.6048 40.5083 16.3813 40.2619C17.5725 39.8841 18.8119 40.6583 19.1496 41.9914C19.4873 43.3244 18.7954 44.7114 17.6042 45.0893C16.4336 45.4606 15.2004 45.6584 13.9298 45.6584C6.50084 45.6584 0.478516 38.919 0.478516 30.6058C0.478516 24.02 4.25614 18.4268 9.51679 16.3827C10.272 7.47129 16.9781 0.5 25.1392 0.5C33.3385 0.5 40.0691 7.53675 40.7717 16.5081C45.8701 18.6483 49.4998 24.1502 49.4998 30.6058C49.4998 38.919 43.4775 45.6584 36.0485 45.6584C34.7779 45.6584 33.5447 45.4606 32.3742 45.0893C31.1829 44.7114 30.491 43.3244 30.8287 41.9914C31.1664 40.6583 32.4058 39.8841 33.597 40.2619C34.3735 40.5083 35.1952 40.6409 36.0485 40.6409C41.0012 40.6409 45.016 36.148 45.016 30.6058C45.016 25.8691 42.0814 21.8934 38.133 20.8426C37.2011 20.5946 36.5447 19.7289 36.4279 18.7255C36.3762 18.514 36.3485 18.2913 36.3485 18.0614C36.3485 11.1336 31.3299 5.51753 25.1392 5.51753C18.9484 5.51753 13.9298 11.1336 13.9298 18.0614C13.9298 18.9261 13.5388 19.6887 12.9439 20.1398Z" fill="#368629"/>
<path d="M34.7249 28.8382C35.597 29.8217 35.5915 31.4102 34.7125 32.3861L26.7181 41.2626C25.8406 42.2369 24.4239 42.2325 23.5512 41.2527L15.7781 32.5255C14.904 31.5441 14.9063 29.9557 15.7833 28.9776C16.6602 27.9995 18.0797 28.0021 18.9538 28.9834L22.8973 33.4109V18.0614C22.8973 16.6758 23.901 15.5526 25.1392 15.5526C26.3773 15.5526 27.381 16.6758 27.381 18.0614V33.4582L31.5544 28.8243C32.4334 27.8484 33.8528 27.8546 34.7249 28.8382Z" fill="#368629"/>
</svg>
