<svg width="49" height="49" viewBox="0 0 49 49" fill="none" xmlns="http://www.w3.org/2000/svg">
<path d="M0.5 2.96154C0.5 1.60207 1.47683 0.5 2.68182 0.5H35.4091C36.6141 0.5 37.5909 1.60207 37.5909 2.96154C37.5909 4.32101 36.6141 5.42308 35.4091 5.42308H4.86364V37.4231H19.0455C19.6241 37.4231 20.1791 37.6824 20.5882 38.144L24.5 42.5573L28.4118 38.144C28.8209 37.6824 29.3759 37.4231 29.9545 37.4231H44.1364V15.2692C44.1364 13.9098 45.1132 12.8077 46.3182 12.8077C47.5232 12.8077 48.5 13.9098 48.5 15.2692V39.8846C48.5 41.2441 47.5232 42.3462 46.3182 42.3462H30.8583L26.0428 47.779C25.1907 48.7403 23.8093 48.7403 22.9572 47.779L18.1417 42.3462H2.68182C1.47683 42.3462 0.5 41.2441 0.5 39.8846V2.96154Z" fill="#C25576"/>
<path d="M21.2273 20.1923C21.2273 18.8328 22.2041 17.7308 23.4091 17.7308H25.5936C26.7986 17.7308 27.7755 18.8328 27.7755 20.1923C27.7755 21.5518 26.7986 22.6538 25.5936 22.6538H23.4091C22.2041 22.6538 21.2273 21.5518 21.2273 20.1923Z" fill="#C25576"/>
<path d="M34.3194 17.7308C33.1144 17.7308 32.1376 18.8328 32.1376 20.1923C32.1376 21.5518 33.1144 22.6538 34.3194 22.6538H36.5C37.705 22.6538 38.6818 21.5518 38.6818 20.1923C38.6818 18.8328 37.705 17.7308 36.5 17.7308H34.3194Z" fill="#C25576"/>
<path d="M10.3192 20.1923C10.3192 18.8328 11.2961 17.7308 12.5011 17.7308H14.6817C15.8867 17.7308 16.8635 18.8328 16.8635 20.1923C16.8635 21.5518 15.8867 22.6538 14.6817 22.6538H12.5011C11.2961 22.6538 10.3192 21.5518 10.3192 20.1923Z" fill="#C25576"/>
<path d="M48.5 4.19231C48.5 6.23151 47.0347 7.88462 45.2273 7.88462C43.4198 7.88462 41.9545 6.23151 41.9545 4.19231C41.9545 2.1531 43.4198 0.5 45.2273 0.5C47.0347 0.5 48.5 2.1531 48.5 4.19231Z" fill="#C25576"/>
</svg>
