<svg width="150" height="150" viewBox="0 0 150 150" fill="none" xmlns="http://www.w3.org/2000/svg">
<path d="M75 150C33.675 150 0 116.325 0 75C0 33.675 33.675 0 75 0C116.325 0 150 30.3 150 67.5C150 92.325 129.825 112.5 105 112.5H91.725C89.625 112.5 87.975 114.15 87.975 116.25C87.975 117.15 88.35 117.975 88.95 118.725C92.025 122.25 93.75 126.675 93.75 131.25C93.75 141.6 85.35 150 75 150V150ZM75 15C41.925 15 15 41.925 15 75C15 108.075 41.925 135 75 135C77.1 135 78.75 133.35 78.75 131.25C78.75 130.05 78.15 129.15 77.7 128.625C74.625 125.175 72.975 120.75 72.975 116.25C72.975 105.9 81.375 97.5 91.725 97.5H105C121.575 97.5 135 84.075 135 67.5C135 38.55 108.075 15 75 15Z" fill="#313F6A" fill-opacity="0.5"/>
<path d="M33.75 82.5018C39.9632 82.5018 45 77.465 45 71.2518C45 65.0386 39.9632 60.0018 33.75 60.0018C27.5368 60.0018 22.5 65.0386 22.5 71.2518C22.5 77.465 27.5368 82.5018 33.75 82.5018Z" fill="#313F6A" fill-opacity="0.5"/>
<path d="M56.2495 52.501C62.4627 52.501 67.4995 47.4642 67.4995 41.251C67.4995 35.0378 62.4627 30.001 56.2495 30.001C50.0363 30.001 44.9995 35.0378 44.9995 41.251C44.9995 47.4642 50.0363 52.501 56.2495 52.501Z" fill="#313F6A" fill-opacity="0.5"/>
<path d="M93.7573 52.501C99.9705 52.501 105.007 47.4642 105.007 41.251C105.007 35.0378 99.9705 30.001 93.7573 30.001C87.5441 30.001 82.5073 35.0378 82.5073 41.251C82.5073 47.4642 87.5441 52.501 93.7573 52.501Z" fill="#313F6A" fill-opacity="0.5"/>
<path d="M116.257 82.5018C122.471 82.5018 127.507 77.465 127.507 71.2518C127.507 65.0386 122.471 60.0018 116.257 60.0018C110.044 60.0018 105.007 65.0386 105.007 71.2518C105.007 77.465 110.044 82.5018 116.257 82.5018Z" fill="#313F6A" fill-opacity="0.5"/>
</svg>
