<svg width="150" height="150" viewBox="0 0 150 150" fill="none" xmlns="http://www.w3.org/2000/svg">
<path d="M115.001 46.1173C113.871 45.7948 112.839 45.1948 111.999 44.3717C111.16 43.5487 110.54 42.5288 110.195 41.4048C108.281 34.9176 105.071 28.8861 100.759 23.6754C96.4463 18.4647 91.1217 14.183 85.1069 11.0896C79.0921 7.99609 72.5122 6.1551 65.7654 5.67801C59.0186 5.20092 52.2451 6.09765 45.8549 8.31392C39.4646 10.5302 33.5905 14.0199 28.5879 18.572C23.5852 23.124 19.5582 28.6437 16.7504 34.797C13.9426 40.9504 12.4125 47.6094 12.2525 54.3712C12.0926 61.1329 13.3062 67.8569 15.8199 74.1361C16.3974 75.4575 16.5217 76.9328 16.1736 78.3323C15.8254 79.7317 15.0243 80.9768 13.8949 81.8736C8.91824 85.5673 5.03273 90.5377 2.64964 96.2589C0.266547 101.98 -0.52546 108.239 0.357442 114.374C1.73528 122.667 6.04072 130.191 12.4923 135.58C18.9439 140.97 27.1141 143.868 35.5199 143.749H68.7512C70.4088 143.749 71.9985 143.09 73.1706 141.918C74.3427 140.746 75.0012 139.156 75.0012 137.499C75.0012 135.841 74.3427 134.251 73.1706 133.079C71.9985 131.907 70.4088 131.249 68.7512 131.249H35.5199C30.1217 131.38 24.8551 129.572 20.6747 126.154C16.4943 122.736 13.6766 117.934 12.7324 112.617C12.1337 108.709 12.619 104.712 14.1354 101.061C15.6518 97.4098 18.1413 94.2449 21.3324 91.9111C24.6845 89.4058 27.1092 85.858 28.2258 81.825C29.3424 77.792 29.0875 73.5023 27.5012 69.6298C24.3646 61.3467 24.2034 52.2312 27.0449 43.8423C29.3149 37.2709 33.3798 31.4666 38.7792 27.0867C44.1786 22.7069 50.6966 19.9267 57.5949 19.0611C59.1951 18.8551 60.8066 18.7507 62.4199 18.7486C70.5015 18.7219 78.3744 21.3138 84.8596 26.136C91.3449 30.9583 96.0937 37.7515 98.3949 45.4986C99.2933 48.4509 100.912 51.1334 103.105 53.3045C105.298 55.4757 107.996 57.0673 110.957 57.9361C118.204 60.0793 124.623 64.3853 129.356 70.2774C134.088 76.1696 136.907 83.3667 137.436 90.9053C137.965 98.4439 136.178 105.964 132.315 112.459C128.452 118.954 122.697 124.114 115.82 127.249C114.802 127.77 113.951 128.566 113.365 129.548C112.778 130.529 112.479 131.655 112.501 132.799V132.799C112.489 133.833 112.737 134.853 113.222 135.767C113.707 136.68 114.414 137.458 115.277 138.027C116.141 138.596 117.133 138.939 118.164 139.025C119.195 139.111 120.231 138.936 121.176 138.517C147.014 126.099 161.051 93.4298 139.176 61.8673C133.153 54.0105 124.622 48.4524 115.001 46.1173V46.1173Z" fill="#313F6A" fill-opacity="0.5"/>
<path d="M116.92 104.418C118.091 103.246 118.75 101.657 118.75 99.9997C118.75 98.3424 118.091 96.753 116.92 95.581L107.007 85.6685C103.491 82.1534 98.7227 80.1787 93.7508 80.1787C88.779 80.1787 84.0107 82.1534 80.4946 85.6685L70.5821 95.581C69.4436 96.7597 68.8136 98.3385 68.8279 99.9772C68.8421 101.616 69.4994 103.184 70.6582 104.342C71.817 105.501 73.3846 106.158 75.0233 106.173C76.6621 106.187 78.2408 105.557 79.4196 104.418L87.5008 96.3372V143.75C87.5008 145.407 88.1593 146.997 89.3314 148.169C90.5035 149.341 92.0932 150 93.7508 150C95.4084 150 96.9982 149.341 98.1703 148.169C99.3424 146.997 100.001 145.407 100.001 143.75V96.3372L108.082 104.418C109.254 105.59 110.844 106.248 112.501 106.248C114.158 106.248 115.748 105.59 116.92 104.418Z" fill="#313F6A" fill-opacity="0.5"/>
</svg>
