<svg width="158" height="158" viewBox="0 0 158 158" fill="none" xmlns="http://www.w3.org/2000/svg">
<path fill-rule="evenodd" clip-rule="evenodd" d="M71.0781 27.0749V110.557C71.0781 114.915 74.6103 118.447 78.9674 118.447C83.3246 118.447 86.8568 114.915 86.8568 110.557V27.0095L108.924 49.0764C112.005 52.1574 117 52.1574 120.081 49.0764C123.162 45.9954 123.162 41.0001 120.081 37.9191L84.5788 2.41695C83.0342 0.872294 81.0083 0.102052 78.9838 0.106218C78.9784 0.106207 78.9729 0.106201 78.9674 0.106201C76.5708 0.106201 74.4237 1.17489 72.9768 2.86173L37.9194 37.9191C34.8384 41.0001 34.8384 45.9954 37.9194 49.0764C41.0004 52.1574 45.9956 52.1574 49.0766 49.0764L71.0781 27.0749ZM150.005 71.1106C154.362 71.1106 157.894 74.6428 157.894 78.9999V150.004C157.894 154.361 154.362 157.894 150.005 157.894H7.99582C3.63864 157.894 0.106445 154.361 0.106445 150.004V79.0327C0.106445 74.6755 3.63864 71.1433 7.99582 71.1433C12.353 71.1433 15.8852 74.6755 15.8852 79.0327V142.115H142.115V78.9999C142.115 74.6428 145.647 71.1106 150.005 71.1106Z" fill="#313F6A" fill-opacity="0.5"/>
</svg>
