<svg width="150" height="150" viewBox="0 0 150 150" fill="none" xmlns="http://www.w3.org/2000/svg">
<path d="M118.75 0H31.25C22.965 0.00992411 15.0222 3.30551 9.16387 9.16387C3.30551 15.0222 0.00992411 22.965 0 31.25L0 118.75C0.00992411 127.035 3.30551 134.978 9.16387 140.836C15.0222 146.694 22.965 149.99 31.25 150H118.75C127.035 149.99 134.978 146.694 140.836 140.836C146.694 134.978 149.99 127.035 150 118.75V31.25C149.99 22.965 146.694 15.0222 140.836 9.16387C134.978 3.30551 127.035 0.00992411 118.75 0V0ZM137.5 31.25H93.75V12.5H118.75C123.723 12.5 128.492 14.4754 132.008 17.9917C135.525 21.5081 137.5 26.2772 137.5 31.25ZM68.75 12.5H81.25V43.75C81.25 45.4076 80.5915 46.9973 79.4194 48.1694C78.2473 49.3415 76.6576 50 75 50C73.3424 50 71.7527 49.3415 70.5806 48.1694C69.4085 46.9973 68.75 45.4076 68.75 43.75V12.5ZM31.25 12.5H56.25V31.25H12.5C12.5 26.2772 14.4754 21.5081 17.9917 17.9917C21.5081 14.4754 26.2772 12.5 31.25 12.5ZM118.75 137.5H31.25C26.2772 137.5 21.5081 135.525 17.9917 132.008C14.4754 128.492 12.5 123.723 12.5 118.75V43.75H56.25C56.25 48.7228 58.2254 53.4919 61.7417 57.0083C65.258 60.5246 70.0272 62.5 75 62.5C79.9728 62.5 84.742 60.5246 88.2583 57.0083C91.7746 53.4919 93.75 48.7228 93.75 43.75H137.5V118.75C137.5 123.723 135.525 128.492 132.008 132.008C128.492 135.525 123.723 137.5 118.75 137.5ZM125 118.75C125 120.408 124.342 121.997 123.169 123.169C121.997 124.342 120.408 125 118.75 125H100C98.3424 125 96.7527 124.342 95.5806 123.169C94.4085 121.997 93.75 120.408 93.75 118.75C93.75 117.092 94.4085 115.503 95.5806 114.331C96.7527 113.158 98.3424 112.5 100 112.5H118.75C120.408 112.5 121.997 113.158 123.169 114.331C124.342 115.503 125 117.092 125 118.75Z" fill="#313F6A" fill-opacity="0.5"/>
</svg>
