<svg width="24" height="20" viewBox="0 0 24 20" fill="none" xmlns="http://www.w3.org/2000/svg">
  <path fill-rule="evenodd" clip-rule="evenodd"
    d="M17.525 0.372282C17.8223 0.575615 18 0.912544 18 1.27268V18.7272C18 19.0874 17.8223 19.4243 17.525 19.6276C17.2278 19.8309 16.8493 19.8745 16.5137 19.744L6.88624 15.9999H1.09091C0.488417 15.9999 0 15.5115 0 14.909V5.09085C0 4.48836 0.488417 3.99994 1.09091 3.99994H6.88627L16.5137 0.255945C16.8493 0.125416 17.2278 0.168949 17.525 0.372282ZM15.8182 17.1325L8.18182 14.1628V5.83711L15.8182 2.86742V17.1325Z"
    fill="#313F6A" />
  <path
    d="M20.7273 5.09085C20.1248 5.09085 19.6364 5.57927 19.6364 6.18176C19.6364 6.78425 20.1248 7.27267 20.7273 7.27267H21.8182C22.4207 7.27267 22.9091 6.78425 22.9091 6.18176C22.9091 5.57927 22.4207 5.09085 21.8182 5.09085H20.7273Z"
    fill="#313F6A" />
  <path
    d="M19.0909 10.5454C19.0909 9.94291 19.5793 9.45449 20.1818 9.45449H22.9091C23.5116 9.45449 24 9.94291 24 10.5454C24 11.1479 23.5116 11.6363 22.9091 11.6363H20.1818C19.5793 11.6363 19.0909 11.1479 19.0909 10.5454Z"
    fill="#313F6A" />
  <path
    d="M20.7273 13.8181C20.1248 13.8181 19.6364 14.3065 19.6364 14.909C19.6364 15.5115 20.1248 15.9999 20.7273 15.9999H21.8182C22.4207 15.9999 22.9091 15.5115 22.9091 14.909C22.9091 14.3065 22.4207 13.8181 21.8182 13.8181H20.7273Z"
    fill="#313F6A" />
</svg>