<svg width="79" height="80" viewBox="0 0 79 80" fill="none" xmlns="http://www.w3.org/2000/svg">
<path d="M29.2298 28.125C29.2298 22.5331 33.6649 18 39.136 18C44.6071 18 49.0423 22.5331 49.0423 28.125C49.0423 33.7169 44.6071 38.25 39.136 38.25C33.6649 38.25 29.2298 33.7169 29.2298 28.125Z" fill="white"/>
<path d="M33.8074 42.6203H45.4431C47.8289 42.6202 49.7532 42.6202 51.3115 42.7504C52.916 42.8843 54.3253 43.1674 55.6291 43.8464C57.7002 44.925 59.3842 46.6461 60.4395 48.7629C61.1038 50.0955 61.3808 51.536 61.5118 53.1759C61.6391 54.7686 61.6391 56.7355 61.6391 59.1739V60.6203C61.6391 61.8629 60.6535 62.8703 59.4377 62.8703H19.8127C18.5969 62.8703 17.6113 61.8629 17.6113 60.6203V59.1739C17.6113 56.7354 17.6113 54.7686 17.7386 53.1759C17.8697 51.536 18.1467 50.0956 18.811 48.7629C19.8663 46.6461 21.5501 44.925 23.6213 43.8464C24.9251 43.1674 26.3344 42.8843 27.9389 42.7504C29.4972 42.6202 31.4216 42.6202 33.8074 42.6203Z" fill="white"/>
</svg>
