<svg width="24" height="24" viewBox="0 0 24 24" fill="none" xmlns="http://www.w3.org/2000/svg">
  <path fill-rule="evenodd" clip-rule="evenodd"
    d="M3 0C1.34311 0 0 0.976843 0 2.18182V22.9091C0 23.3177 0.314021 23.6921 0.813628 23.8791C1.31323 24.0661 1.91464 24.0343 2.37186 23.7968L6.75 21.5224L11.1281 23.7968C11.6497 24.0677 12.3503 24.0677 12.8719 23.7968L17.25 21.5224L21.6281 23.7968C22.0854 24.0343 22.6868 24.0661 23.1864 23.8791C23.686 23.6921 24 23.3177 24 22.9091V2.18182C24 0.976843 22.6569 0 21 0H3ZM7.5 7.63636V9.81818V10.9091C7.5 11.5091 8.175 12 9 12H13.5V13.5H7.5V14.1818V15.5H10.75V17.5H13.5V15.5H15C15.825 15.5 16.5 14.7818 16.5 14.1818V12V10.9091C16.5 10.3091 15.825 9.81818 15 9.81818H10.5V8.5H16.5V7.63636V6.49597H13.5V4.5H10.75V6.5L9 6.49597C8.175 6.49597 7.5 7.03636 7.5 7.63636Z"
    fill="#F5F1EC" />
</svg>