<svg width="25" height="24" viewBox="0 0 25 24" fill="none" xmlns="http://www.w3.org/2000/svg">
  <path fill-rule="evenodd" clip-rule="evenodd"
    d="M10.0227 1.5C10.3465 1.5 10.6535 1.64381 10.8608 1.89253L13.2616 4.77273H22.5682C23.7184 4.77273 24.6607 5.66276 24.744 6.79171L24.75 6.95455V20.0455C24.75 21.2505 23.7732 22.2273 22.5682 22.2273H2.93182C1.72683 22.2273 0.75 21.2505 0.75 20.0455V3.68182C0.75 2.47683 1.72683 1.5 2.93182 1.5H10.0227ZM12.1652 8.76075L12.1777 8.75278C12.1945 8.74244 12.2114 8.7326 12.2286 8.72326C12.2493 8.71203 12.2708 8.7012 12.2927 8.69107C12.3077 8.68413 12.3226 8.67767 12.3376 8.67157C12.3605 8.66218 12.384 8.65353 12.4078 8.64567C12.4268 8.63946 12.4461 8.63368 12.4656 8.62845C12.4857 8.62295 12.506 8.61808 12.5266 8.61379C12.548 8.60945 12.5691 8.60571 12.5903 8.60259C12.6099 8.59963 12.6302 8.59722 12.6507 8.59537C12.6773 8.593 12.7035 8.59158 12.7297 8.5911L12.75 8.59091L12.8465 8.59516C12.8215 8.59295 12.7964 8.5916 12.7712 8.59111L12.75 8.59091C12.8052 8.59091 12.8595 8.59501 12.9125 8.60293C12.9307 8.60572 12.9497 8.60906 12.9685 8.6129C12.993 8.61779 13.0167 8.62345 13.04 8.62988C13.0567 8.63454 13.0735 8.63959 13.0902 8.64505C13.112 8.65213 13.1335 8.65998 13.1548 8.66848C13.1739 8.67609 13.1927 8.68426 13.2114 8.69298C13.2342 8.70368 13.2565 8.71505 13.2783 8.72714C13.2913 8.73425 13.3047 8.74201 13.3179 8.75007C13.3459 8.76733 13.3731 8.78562 13.3993 8.80507C13.4058 8.8098 13.4122 8.81467 13.4185 8.81961L13.4323 8.83057L13.5214 8.91043L17.3396 12.7286C17.7656 13.1546 17.7656 13.8454 17.3396 14.2714C16.9463 14.6646 16.3275 14.6949 15.8996 14.3621L15.7968 14.2714L13.8409 12.3164V17.3182C13.8409 17.9207 13.3525 18.4091 12.75 18.4091C12.1905 18.4091 11.7294 17.988 11.6664 17.4454L11.6591 17.3182V12.3175L9.70407 14.279C9.31125 14.6727 8.69248 14.7037 8.26416 14.3714L8.16129 14.2808C7.7676 13.8879 7.73666 13.2692 8.06893 12.8409L8.15957 12.738L11.9694 8.91977C12.0034 8.88489 12.0398 8.85229 12.0782 8.82221L12.0805 8.82036L12.1652 8.76075Z"
    fill="#313F6A" />
</svg>