<svg width="24" height="24" viewBox="0 0 24 24" fill="none" xmlns="http://www.w3.org/2000/svg">
  <path fill-rule="evenodd" clip-rule="evenodd"
    d="M11.3185 0.262957C11.7169 -0.0876525 12.2831 -0.0876525 12.6815 0.262957L23.5905 9.86296C24.061 10.277 24.1373 11.0321 23.7609 11.5496C23.3845 12.0671 22.698 12.1511 22.2276 11.737L21.2727 10.8967V22.8C21.2727 23.4627 20.7843 24 20.1818 24H3.81821C3.21572 24 2.7273 23.4627 2.7273 22.8V10.8967L1.77243 11.737C1.30196 12.1511 0.615464 12.0671 0.239092 11.5496C-0.137281 11.0321 -0.0610036 10.277 0.409462 9.86296L11.3185 0.262957ZM9.2727 13.8C8.67021 13.8 8.18179 14.3373 8.18179 15V21.6H15.8181V15C15.8181 14.3373 15.3297 13.8 14.7272 13.8H9.2727Z"
    fill="#313F6A" />
</svg>