<svg width="24" height="22" viewBox="0 0 24 22" fill="none" xmlns="http://www.w3.org/2000/svg">
  <path fill-rule="evenodd" clip-rule="evenodd"
    d="M1.09091 0.363647C0.488417 0.363647 0 0.852064 0 1.45456V14.5455C0 15.148 0.488417 15.6364 1.09091 15.6364H3.36631L5.22861 17.4987C5.65464 17.9247 6.34536 17.9247 6.77139 17.4987L8.63369 15.6364H9.81818V18.9091C9.81818 19.5116 10.3066 20 10.9091 20H16.4572L17.7741 21.3169C18.2001 21.7429 18.8908 21.7429 19.3168 21.3169L20.6337 20H22.9091C23.5116 20 24 19.5116 24 18.9091V10.1818C24 9.57934 23.5116 9.09092 22.9091 9.09092H19.6364V1.45456C19.6364 0.852064 19.1479 0.363647 18.5455 0.363647H1.09091ZM19.6364 11.2727V14.5455C19.6364 15.148 19.1479 15.6364 18.5455 15.6364H12V17.8182H16.9091C17.1984 17.8182 17.4759 17.9331 17.6805 18.1377L18.5455 19.0027L19.4104 18.1377C19.615 17.9331 19.8925 17.8182 20.1818 17.8182H21.8182V11.2727H19.6364ZM8.18182 8.00001C8.18182 7.39752 8.67024 6.9091 9.27273 6.9091H9.81818C10.4207 6.9091 10.9091 7.39752 10.9091 8.00001C10.9091 8.6025 10.4207 9.09092 9.81818 9.09092H9.27273C8.67024 9.09092 8.18182 8.6025 8.18182 8.00001ZM13.0909 6.9091C12.4884 6.9091 12 7.39752 12 8.00001C12 8.6025 12.4884 9.09092 13.0909 9.09092H13.6364C14.2389 9.09092 14.7273 8.6025 14.7273 8.00001C14.7273 7.39752 14.2389 6.9091 13.6364 6.9091H13.0909ZM4.36364 8.00001C4.36364 7.39752 4.85205 6.9091 5.45455 6.9091H6C6.60249 6.9091 7.09091 7.39752 7.09091 8.00001C7.09091 8.6025 6.60249 9.09092 6 9.09092H5.45455C4.85205 9.09092 4.36364 8.6025 4.36364 8.00001Z"
    fill="#F5F1EC" />
</svg>