<svg width="24" height="24" viewBox="0 0 24 24" fill="none" xmlns="http://www.w3.org/2000/svg">
  <path
    d="M0 1.2C0 0.537258 0.537258 0 1.2 0H11.995C12.6578 0 13.195 0.537258 13.195 1.2C13.195 1.86274 12.6578 2.4 11.995 2.4H2.4V21.6H12C12.6627 21.6 13.2 22.1373 13.2 22.8C13.2 23.4627 12.6627 24 12 24H1.2C0.537258 24 0 23.4627 0 22.8V1.2Z"
    fill="#F5F1EC" />
  <path
    d="M16.5515 5.75147C17.0201 5.28284 17.7799 5.28284 18.2485 5.75147L23.583 11.0859C23.8383 11.306 24 11.6318 24 11.9953L24 11.9975C24.0006 12.3055 23.8835 12.6136 23.6485 12.8485L18.2485 18.2485C17.7799 18.7172 17.0201 18.7172 16.5515 18.2485C16.0828 17.7799 16.0828 17.0201 16.5515 16.5515L19.9076 13.1953H7.2C6.53726 13.1953 6 12.6581 6 11.9953C6 11.3326 6.53726 10.7953 7.2 10.7953H19.8983L16.5515 7.44853C16.0828 6.9799 16.0828 6.2201 16.5515 5.75147Z"
    fill="#F5F1EC" />
</svg>