<svg width="24" height="24" viewBox="0 0 24 24" fill="none" xmlns="http://www.w3.org/2000/svg">
  <path fill-rule="evenodd" clip-rule="evenodd"
    d="M0 2.18182C0 0.976833 1.19391 0 2.66667 0H21.3333C22.8061 0 24 0.976834 24 2.18182V21.8182C24 23.0232 22.8061 24 21.3333 24H2.66667C1.19391 24 0 23.0232 0 21.8182V2.18182ZM6 7.63636C6.7364 7.63636 7.33333 7.14796 7.33333 6.54545C7.33333 5.94295 6.7364 5.45455 6 5.45455C5.2636 5.45455 4.66667 5.94295 4.66667 6.54545C4.66667 7.14796 5.2636 7.63636 6 7.63636ZM8.66667 6.54545C8.66667 5.94296 9.26362 5.45455 10 5.45455H18C18.7364 5.45455 19.3333 5.94296 19.3333 6.54545C19.3333 7.14795 18.7364 7.63636 18 7.63636H10C9.26362 7.63636 8.66667 7.14795 8.66667 6.54545ZM10 10.9091C9.26362 10.9091 8.66667 11.3975 8.66667 12C8.66667 12.6025 9.26362 13.0909 10 13.0909H18C18.7364 13.0909 19.3333 12.6025 19.3333 12C19.3333 11.3975 18.7364 10.9091 18 10.9091H10ZM10 16.3636C9.26362 16.3636 8.66667 16.8521 8.66667 17.4545C8.66667 18.057 9.26362 18.5455 10 18.5455H18C18.7364 18.5455 19.3333 18.057 19.3333 17.4545C19.3333 16.8521 18.7364 16.3636 18 16.3636H10ZM6 13.0909C6.7364 13.0909 7.33333 12.6025 7.33333 12C7.33333 11.3975 6.7364 10.9091 6 10.9091C5.2636 10.9091 4.66667 11.3975 4.66667 12C4.66667 12.6025 5.2636 13.0909 6 13.0909ZM6 18.5455C6.7364 18.5455 7.33333 18.0571 7.33333 17.4545C7.33333 16.852 6.7364 16.3636 6 16.3636C5.2636 16.3636 4.66667 16.852 4.66667 17.4545C4.66667 18.0571 5.2636 18.5455 6 18.5455Z"
    fill="#F5F1EC" />
</svg>