<svg width="24" height="24" viewBox="0 0 24 24" fill="none" xmlns="http://www.w3.org/2000/svg">
  <path fill-rule="evenodd" clip-rule="evenodd"
    d="M9.42147 1.09091C9.42147 0.488417 9.90989 0 10.5124 0H13.4876C14.0901 0 14.5785 0.488417 14.5785 1.09091V2.83292C15.3116 3.03873 16.0087 3.32999 16.6583 3.69508L17.8906 2.46281C18.3167 2.0368 19.0074 2.0368 19.4334 2.46282L21.5372 4.56659C21.9632 4.99262 21.9632 5.68333 21.5372 6.10936L20.3049 7.34166C20.67 7.99133 20.9613 8.68844 21.1671 9.42147H22.9091C23.5116 9.42147 24 9.90989 24 10.5124V13.4876C24 14.0901 23.5116 14.5785 22.9091 14.5785H21.1671C20.9613 15.3116 20.67 16.0087 20.3049 16.6583L21.5372 17.8906C21.9632 18.3167 21.9632 19.0074 21.5372 19.4334L19.4334 21.5372C19.0074 21.9632 18.3167 21.9632 17.8906 21.5372L16.6583 20.3049C16.0087 20.67 15.3116 20.9613 14.5785 21.1671V22.9091C14.5785 23.5116 14.0901 24 13.4876 24H10.5124C9.90989 24 9.42147 23.5116 9.42147 22.9091V21.1671C8.68844 20.9613 7.99133 20.67 7.34166 20.3049L6.10936 21.5372C5.68333 21.9632 4.99262 21.9632 4.56659 21.5372L2.46282 19.4334C2.0368 19.0074 2.0368 18.3167 2.46281 17.8906L3.69508 16.6583C3.32999 16.0087 3.03873 15.3116 2.83292 14.5785H1.09091C0.488417 14.5785 0 14.0901 0 13.4876V10.5124C0 9.90989 0.488417 9.42147 1.09091 9.42147H2.83292C3.03873 8.68845 3.32999 7.99133 3.69508 7.34166L2.46281 6.10936C2.0368 5.68333 2.0368 4.99261 2.46282 4.56659L4.56659 2.46282C4.99261 2.0368 5.68333 2.0368 6.10936 2.46281L7.34166 3.69508C7.99133 3.32999 8.68845 3.03873 9.42147 2.83292V1.09091ZM8.18182 12C8.18182 9.89129 9.89129 8.18182 12 8.18182C14.1087 8.18182 15.8182 9.89129 15.8182 12C15.8182 14.1087 14.1087 15.8182 12 15.8182C9.89129 15.8182 8.18182 14.1087 8.18182 12Z"
    fill="#F5F1EC" />
</svg>